<svg width="26" height="26" viewBox="0 0 26 26" fill="none" xmlns="http://www.w3.org/2000/svg">
<rect width="26" height="26" rx="2" fill="white"/>
<path d="M3.51335 20.9445H7.04146V12.7369L2 9.11108V19.495C2 20.2986 2.6791 20.9445 3.51335 20.9445Z" fill="#E25420"/>
<path d="M19.1474 20.9445H22.6755C23.5097 20.9445 24.1888 20.294 24.1888 19.495V9.11108L19.1474 12.7323V20.9445Z" fill="#E25420"/>
<path d="M19.1474 6.45455V12.7324L24.1888 9.11113V7.17722C24.1888 5.38777 22.0544 4.36333 20.5589 5.43882L19.1474 6.45455Z" fill="#E25420"/>
<path d="M7.04105 12.737V6.45459L13.094 10.8031L19.147 6.45459V12.737L13.094 17.0809L7.04105 12.737Z" fill="#E25420"/>
<path d="M2 7.1821V9.11601L7.04146 12.7373V6.45528L5.62995 5.44371C4.13438 4.36821 2 5.39265 2 7.1821Z" fill="#E25420"/>
</svg>
