<svg width="32" height="32" viewBox="0 0 32 32" fill="none" xmlns="http://www.w3.org/2000/svg">
<rect x="2.66763" y="2.6665" width="26.6667" height="26.6667" rx="13.3333" fill="#E25420"/>
<path d="M16.001 2.71997C8.66763 2.71997 2.66763 8.70664 2.66763 16.08C2.66763 22.7466 7.54763 28.28 13.921 29.28V19.9466H10.5343V16.08H13.921V13.1333C13.921 9.78664 15.9076 7.94664 18.961 7.94664C20.4143 7.94664 21.9343 8.19997 21.9343 8.19997V11.4933H20.2543C18.601 11.4933 18.081 12.52 18.081 13.5733V16.08H21.7876L21.1876 19.9466H18.081V29.28C21.2229 28.7838 24.0839 27.1807 26.1475 24.76C28.2112 22.3394 29.3414 19.2608 29.3343 16.08C29.3343 8.70664 23.3343 2.71997 16.001 2.71997Z" fill="#E3E3E3"/>
</svg>
