<svg width="30" height="30" viewBox="0 0 30 30" fill="none" xmlns="http://www.w3.org/2000/svg">
<rect x="2.99998" y="3.5" width="23.5" height="23.5" rx="11.75" fill="#E25420"/>
<path d="M14.9998 2.5C18.396 2.5 18.8198 2.5125 20.1523 2.575C21.4835 2.6375 22.3898 2.84625 23.1873 3.15625C24.0123 3.47375 24.7073 3.90375 25.4023 4.5975C26.0379 5.22237 26.5297 5.97824 26.8435 6.8125C27.1523 7.60875 27.3623 8.51625 27.4248 9.8475C27.4835 11.18 27.4998 11.6037 27.4998 15C27.4998 18.3962 27.4873 18.82 27.4248 20.1525C27.3623 21.4837 27.1523 22.39 26.8435 23.1875C26.5306 24.0222 26.0387 24.7783 25.4023 25.4025C24.7772 26.0379 24.0214 26.5297 23.1873 26.8437C22.391 27.1525 21.4835 27.3625 20.1523 27.425C18.8198 27.4837 18.396 27.5 14.9998 27.5C11.6035 27.5 11.1798 27.4875 9.84727 27.425C8.51602 27.3625 7.60977 27.1525 6.81227 26.8437C5.97768 26.5306 5.22168 26.0387 4.59727 25.4025C3.96153 24.7777 3.46969 24.0218 3.15602 23.1875C2.84602 22.3912 2.63727 21.4837 2.57477 20.1525C2.51602 18.82 2.49977 18.3962 2.49977 15C2.49977 11.6037 2.51227 11.18 2.57477 9.8475C2.63727 8.515 2.84602 7.61 3.15602 6.8125C3.46882 5.97772 3.96078 5.22165 4.59727 4.5975C5.22186 3.96154 5.97781 3.46966 6.81227 3.15625C7.60977 2.84625 8.51477 2.6375 9.84727 2.575C11.1798 2.51625 11.6035 2.5 14.9998 2.5ZM14.9998 8.75C13.3422 8.75 11.7525 9.40848 10.5804 10.5806C9.40825 11.7527 8.74977 13.3424 8.74977 15C8.74977 16.6576 9.40825 18.2473 10.5804 19.4194C11.7525 20.5915 13.3422 21.25 14.9998 21.25C16.6574 21.25 18.2471 20.5915 19.4192 19.4194C20.5913 18.2473 21.2498 16.6576 21.2498 15C21.2498 13.3424 20.5913 11.7527 19.4192 10.5806C18.2471 9.40848 16.6574 8.75 14.9998 8.75ZM23.1248 8.4375C23.1248 8.0231 22.9601 7.62567 22.6671 7.33265C22.3741 7.03962 21.9767 6.875 21.5623 6.875C21.1479 6.875 20.7504 7.03962 20.4574 7.33265C20.1644 7.62567 19.9998 8.0231 19.9998 8.4375C19.9998 8.8519 20.1644 9.24933 20.4574 9.54235C20.7504 9.83538 21.1479 10 21.5623 10C21.9767 10 22.3741 9.83538 22.6671 9.54235C22.9601 9.24933 23.1248 8.8519 23.1248 8.4375ZM14.9998 11.25C15.9943 11.25 16.9482 11.6451 17.6514 12.3483C18.3547 13.0516 18.7498 14.0054 18.7498 15C18.7498 15.9946 18.3547 16.9484 17.6514 17.6516C16.9482 18.3549 15.9943 18.75 14.9998 18.75C14.0052 18.75 13.0514 18.3549 12.3481 17.6516C11.6449 16.9484 11.2498 15.9946 11.2498 15C11.2498 14.0054 11.6449 13.0516 12.3481 12.3483C13.0514 11.6451 14.0052 11.25 14.9998 11.25Z" fill="#E3E3E3"/>
</svg>
