<svg width="26" height="26" viewBox="0 0 26 26" fill="none" xmlns="http://www.w3.org/2000/svg">
<g clip-path="url(#clip0_35_145)">
<rect x="-4.63966" y="-3.71167" width="55.68" height="55.68" rx="20.416" fill="#E25420"/>
<path d="M22.1519 22.1561H18.3013V16.1241C18.3013 14.685 18.2714 12.8338 16.2941 12.8338C14.2869 12.8338 13.9801 14.399 13.9801 16.0175V22.1561H10.1308V9.75024H13.828V11.4402H13.8787C14.3948 10.4652 15.6519 9.43824 17.5291 9.43824C21.4304 9.43824 22.1519 12.0044 22.1519 15.3467V22.1561ZM5.78102 8.05244C4.54082 8.05244 3.54502 7.05014 3.54502 5.81644C3.54502 4.58274 4.54212 3.58044 5.78102 3.58044C6.37405 3.58044 6.94278 3.81602 7.36211 4.23535C7.78145 4.65468 8.01702 5.22342 8.01702 5.81644C8.01702 6.40947 7.78145 6.9782 7.36211 7.39753C6.94278 7.81687 6.37405 8.05244 5.78102 8.05244ZM7.71022 22.1574H3.84922V9.75024H7.71022V22.1561V22.1574ZM24.0772 0.000244141H1.91872C0.857924 0.000244141 -7.62939e-05 0.838744 -7.62939e-05 1.87224V24.1282C-7.62939e-05 25.1617 0.857924 26.0002 1.91872 26.0002H24.0733C25.1328 26.0002 25.9999 25.163 25.9999 24.1282V1.87224C25.9999 0.840044 25.1328 0.000244141 24.0733 0.000244141H24.0772Z" fill="#E3E3E3"/>
</g>
<defs>
<clipPath id="clip0_35_145">
<rect width="26" height="26" fill="white"/>
</clipPath>
</defs>
</svg>
