<svg width="219" height="79" viewBox="0 0 219 79" fill="none" xmlns="http://www.w3.org/2000/svg">
<path d="M94.4141 0.693618C94.1219 1.31885 94.3654 2.72561 94.8036 2.90797C95.0227 3.01218 95.1201 3.29874 95.047 3.68951C94.974 4.15843 95.0227 4.28868 95.2905 4.18448C95.4852 4.10633 95.6313 4.18448 95.6313 4.34079C95.6313 4.4971 95.8504 5.20048 96.1426 5.87781C97.798 9.86365 97.8954 10.3065 97.7737 14.2663C97.725 16.663 97.5789 18.0177 97.3842 18.2261C97.2381 18.3824 97.092 18.8774 97.092 19.2681C97.092 20.2581 96.24 22.0035 95.3148 22.9153C94.4384 23.801 91.6874 25.2078 90.8597 25.2078C90.5188 25.2078 89.7398 25.3381 89.1312 25.5204C88.2547 25.7549 87.5 25.7549 85.9176 25.5204C84.7734 25.3381 78.1758 25.0776 71.2861 24.9212C52.8081 24.5305 52.4673 24.5044 51.81 24.2179C50.0815 23.4624 49.1077 23.3582 45.3585 23.4624C41.4146 23.5666 39.7104 23.801 38.7123 24.4002C38.4201 24.5565 38.0793 24.6607 37.9576 24.5826C37.8602 24.5044 37.3489 24.6607 36.8133 24.9473C34.4275 26.1457 33.1129 26.7709 32.8938 26.7709C32.772 26.7709 32.3095 26.9532 31.8713 27.1877C31.4331 27.4222 30.8244 27.6306 30.5079 27.6566C30.1915 27.6566 29.9967 27.7348 30.0454 27.7869C30.1915 27.9432 28.4386 28.5945 27.903 28.5945C27.6596 28.5945 27.4648 28.6987 27.4648 28.855C27.4648 28.9852 27.197 29.1155 26.8562 29.1155C26.2475 29.1155 26.1015 29.1676 24.5921 29.9752C24.1295 30.2096 23.5696 30.4181 23.3261 30.4181C23.0827 30.4181 22.7905 30.5483 22.7175 30.6786C22.6201 30.8349 22.4253 30.9391 22.2793 30.913C21.9871 30.8609 21.6463 30.9912 19.4309 32.0593C18.8223 32.3458 18.1893 32.6324 17.9945 32.6585C17.8241 32.6845 17.5563 32.8408 17.4102 32.9971C17.2642 33.1534 16.9477 33.2837 16.7042 33.2837C16.4608 33.2837 16.266 33.3879 16.266 33.5442C16.266 33.6745 16.0956 33.8047 15.9008 33.8047C15.7061 33.8047 14.781 34.3257 13.8315 34.977C12.882 35.6283 11.9569 36.1493 11.7865 36.1493C11.5917 36.1493 11.397 36.2535 11.3483 36.3838C11.2996 36.514 10.9344 36.8267 10.5205 37.0872C8.37817 38.4679 4.16645 42.6882 2.75443 44.9025C1.78062 46.4135 0.660746 49.0707 0.271223 50.7901C-0.0939546 52.4574 -0.0939546 52.5355 0.417294 53.4213L0.928543 54.307L3.41175 54.5154C4.79943 54.6457 10.4232 54.7499 15.9252 54.7759C21.8654 54.828 26.6127 54.9583 27.6109 55.1407C29.9724 55.5575 31.3113 55.4533 31.5061 54.828C31.6522 54.3591 31.1166 53.4734 30.4349 53.0045C30.2645 52.8742 30.2158 52.6658 30.2888 52.5095C30.3862 52.3532 30.3619 52.3011 30.2158 52.3792C29.8993 52.5876 28.8525 51.4153 29.0959 51.1288C29.2177 51.0246 29.169 50.9985 29.0229 51.0767C28.7551 51.233 27.6352 49.5396 27.0509 48.1329C26.2232 46.1269 26.1258 45.5278 26.1502 42.2714C26.1745 39.3015 26.2475 38.6242 26.8318 36.8006C27.197 35.6543 27.7082 34.3518 27.9517 33.8829C28.2195 33.4139 28.3169 32.9711 28.1952 32.8929C27.9274 32.7106 26.9779 33.3097 26.9779 33.6745C26.9779 33.8308 26.6614 34.6123 26.2475 35.4459C25.858 36.2796 25.3468 37.7384 25.1277 38.7023C24.9086 39.6662 24.6408 40.6562 24.519 40.8906C24.2025 41.5419 24.2512 44.7723 24.5921 46.2311C24.7381 46.9345 25.152 48.3673 25.5415 49.4354C25.9067 50.5035 26.1502 51.4674 26.1015 51.5716C26.0284 51.7019 21.622 51.78 16.2904 51.78H6.62532L5.87062 50.9985C4.99419 50.0867 4.99419 49.1749 5.89496 46.9866C6.52794 45.4757 10.7153 40.6822 11.1535 40.9688C11.2752 41.0469 11.3483 40.9688 11.2752 40.7864C11.2022 40.578 11.5917 40.1612 12.2004 39.7444C12.7846 39.3536 13.4663 38.7805 13.7098 38.4939C13.9532 38.2074 14.2697 37.9729 14.4158 37.9729C14.5618 37.9469 15.0731 37.6082 15.5357 37.1914C15.9982 36.7485 16.4608 36.4098 16.6068 36.4098C16.7286 36.4098 17.1911 36.1233 17.605 35.7846C18.5301 35.0291 24.8599 31.7206 25.3711 31.7206C25.5659 31.7206 25.8093 31.5904 25.8824 31.4601C25.9554 31.3038 26.2719 31.1996 26.5884 31.1996C26.8805 31.1996 27.2213 31.1214 27.3187 31.0172C27.5378 30.7567 30.1915 29.897 30.0941 30.1054C30.0454 30.2096 29.6072 31.1475 29.0959 32.2156C28.609 33.2837 28.1952 34.3518 28.1952 34.5862C28.1952 34.8468 28.0491 35.4459 27.8543 35.9149C27.1727 37.6863 27.5135 44.147 28.4386 46.7001C28.5603 46.9866 28.8281 47.7421 29.0472 48.3673C29.948 50.9464 32.3338 53.6818 34.9144 55.0625L36.5212 55.9482H42.1936C48.5721 55.9482 48.9859 55.8701 51.9317 54.0205C52.6377 53.5776 53.149 53.4213 53.7576 53.5255C54.2202 53.6036 56.7521 53.7339 59.357 53.8641C61.9619 53.9683 67.6587 54.2289 72.0165 54.4112C80.0747 54.7759 103.373 54.9062 105.929 54.6196C106.684 54.5154 107.317 54.3591 107.341 54.281C107.341 54.1768 107.049 53.5515 106.708 52.8742L106.1 51.6498L94.2193 51.7279C87.6948 51.754 81.6085 51.8843 80.659 51.9885C79.7339 52.0927 73.5989 52.2229 67.0257 52.275C60.4769 52.3271 54.8044 52.4053 54.4393 52.4574C54.0497 52.4834 53.7576 52.4834 53.7576 52.4053C53.7576 52.1708 54.9505 50.2691 55.2183 50.0867C55.4374 49.9304 56.0947 48.9405 57.0929 47.2211C57.7259 46.1269 59.1135 42.8966 59.1135 42.5319C59.1135 42.3235 59.1866 42.1411 59.3083 42.1411C59.4057 42.1411 59.6978 41.4117 59.9656 40.4999C60.3065 39.2755 60.4282 38.1813 60.4282 36.0191C60.4038 33.4139 60.3551 33.0492 59.7465 31.8769C58.6753 29.8189 57.7746 28.5424 56.4843 27.2138L55.2427 25.9893L56.5086 25.9633C60.4038 25.833 74.3293 26.0414 77.129 26.2499C78.9305 26.3801 81.6815 26.5625 83.2153 26.6146C84.749 26.6927 86.5993 26.8751 87.3296 27.0574C88.912 27.4222 92.296 27.2659 92.8073 26.7969C93.0264 26.6146 93.3429 26.5104 93.5376 26.5885C93.7324 26.6667 94.0245 26.5625 94.1706 26.3541C94.341 26.1457 94.6088 25.9893 94.8036 25.9893C95.2418 25.9893 98.5527 22.4464 98.5527 22.0035C98.5527 21.7951 98.7232 21.4825 98.9179 21.3001C99.137 21.1178 99.2344 20.9094 99.1614 20.8312C99.0883 20.7531 99.2101 20.4665 99.4535 20.206C99.6726 19.9455 99.77 19.6589 99.697 19.5807C99.6239 19.4765 99.697 19.0858 99.8917 18.7211C100.062 18.3303 100.257 17.2361 100.306 16.2722C100.403 14.0839 100.476 14.0839 102.886 15.4126C104.444 16.2983 104.785 16.5067 106.343 17.5748C107.22 18.174 108.169 18.9555 108.486 19.3202C108.778 19.711 109.119 19.9976 109.24 19.9976C109.63 19.9976 110.555 21.5606 110.555 22.238C110.555 23.0456 110.628 23.0195 112.016 22.0817C112.649 21.6388 113.257 21.3001 113.379 21.3001C113.501 21.3001 113.72 21.1178 113.915 20.8833C114.085 20.6749 114.548 20.3102 114.961 20.0757L115.716 19.685L114.986 20.5446C114.596 21.0396 114.182 21.4825 114.109 21.5606C114.036 21.6388 113.768 22.0556 113.525 22.5245C113.282 22.9935 112.989 23.3061 112.916 23.254C112.819 23.2019 112.746 23.28 112.746 23.4624C112.746 23.6447 112.356 24.4002 111.87 25.1557C111.383 25.8851 110.969 26.5885 110.969 26.6667C110.969 26.7969 110.531 27.4222 109.508 28.7768C109.362 28.9592 109.24 29.1936 109.216 29.2979C109.143 29.8189 107.39 32.5021 107.22 32.3198C107.122 32.2156 107.122 32.3198 107.195 32.5282C107.268 32.7627 107.074 33.2316 106.733 33.6224C106.392 34.0131 106.173 34.3257 106.246 34.3257C106.295 34.3257 106.051 34.7947 105.71 35.3678C105.345 35.9409 104.98 36.3577 104.882 36.2796C104.785 36.2014 104.712 36.3577 104.736 36.6182C104.736 36.8527 104.615 37.0351 104.444 36.983C104.25 36.9569 104.176 37.0351 104.274 37.1914C104.469 37.53 103.544 38.8065 103.3 38.546C103.178 38.4418 103.178 38.4939 103.251 38.6763C103.47 39.0671 101.377 41.9587 99.2831 44.1731C98.1876 45.3193 96.6538 46.3614 96.3617 46.179C96.2156 46.0748 96.1182 46.153 96.1182 46.3093C96.1182 46.9866 92.0039 45.8664 89.6667 44.5378C88.1087 43.6521 81.6572 39.015 81.5598 38.7284C81.5111 38.5981 81.365 38.4939 81.2433 38.4939C80.9268 38.4939 78.3462 36.6443 78.3462 36.4098C78.3462 36.3056 78.2002 36.2275 78.0541 36.2275C77.8837 36.2275 76.5447 35.472 75.0596 34.5341C71.1157 32.0853 66.3197 29.9491 62.5706 29.0113C61.329 28.6987 61.0125 28.6987 60.6473 28.9852C59.8926 29.6105 60.5499 30.1575 63.2522 31.1735C67.5126 32.7887 73.4772 36.0451 73.039 36.5401C72.9416 36.6703 72.9903 36.6703 73.1607 36.5661C73.745 36.2275 83.8726 44.2512 83.5318 44.8244C83.4587 44.9807 83.5074 45.0067 83.6778 44.9025C83.8482 44.7723 84.4082 45.0849 85.0412 45.632C85.6254 46.153 86.161 46.5698 86.2341 46.5698C86.3071 46.5698 86.8427 46.9345 87.4513 47.3513C91.3709 50.1909 95.8261 51.1809 98.6745 49.8523C99.9404 49.227 101.62 48.0547 102.01 47.4816C102.107 47.3513 102.205 47.2992 102.205 47.4295C102.205 47.5337 103.203 46.4656 104.42 45.0849C105.613 43.6781 106.708 42.5579 106.806 42.584C106.903 42.61 107.001 42.5058 107.001 42.3235C107.001 42.0108 112.259 34.4039 112.795 33.935C112.941 33.7787 113.111 33.5442 113.136 33.4139C113.184 32.9711 114.645 30.9391 114.888 30.9391C115.034 30.9391 115.083 30.8349 115.01 30.7307C114.84 30.4441 119.222 24.3742 119.49 24.5565C119.611 24.6347 119.782 24.5565 119.879 24.4002C120.001 24.1918 119.952 24.1658 119.733 24.296C119.538 24.4263 119.465 24.3742 119.538 24.1397C119.611 23.9313 119.806 23.801 119.952 23.8531C120.123 23.8792 120.196 23.8271 120.123 23.6968C119.757 23.0456 124.066 18.4345 125.673 17.7832C126.598 17.4185 126.866 17.3924 128.4 17.7572C129.349 17.9656 131.029 18.5126 132.173 18.9816L134.218 19.8673L133.123 20.0236C132.514 20.1278 131.54 20.3623 130.932 20.5446C129.861 20.8833 129.934 20.8833 133.464 21.1178L137.091 21.3262L139.404 22.5245C142.885 24.296 145.076 25.2599 145.977 25.3902C146.683 25.5204 146.756 25.4683 146.756 24.8691C146.756 24.2439 146.488 24.0095 144.541 22.7329C143.713 22.1859 143.324 21.7169 143.445 21.4304C143.518 21.1959 143.372 21.1438 143.031 21.222C142.496 21.3262 142.496 21.3262 142.983 21.0136C143.81 20.4404 150.554 20.3623 152.672 20.9094C155.423 21.5867 157.639 22.4985 158.977 23.4363C159.318 23.6968 159.732 23.9052 159.878 23.9052C160.049 23.9052 160.292 24.0355 160.463 24.1658C160.633 24.3221 160.974 24.6086 161.242 24.8431C161.509 25.0515 161.169 24.9212 160.463 24.5565C159.757 24.1918 159.026 23.9052 158.831 23.9052C158.637 23.9052 158.442 23.7489 158.393 23.5926C158.198 23.0195 153.549 23.1758 151.138 23.8271C149.994 24.1397 148.631 24.4784 148.095 24.6086C147.56 24.7128 147.121 24.9212 147.121 25.0776C147.121 25.2078 148.193 25.5204 149.507 25.7809C150.822 26.0154 152.21 26.4062 152.55 26.5885C152.916 26.7969 154.108 27.5003 155.228 28.1776C157.127 29.2978 159.051 30.1054 161.972 30.9651C163.968 31.5643 168.423 31.408 170.614 30.7046C174.096 29.5584 177.115 27.4222 180.109 23.9834L181.862 21.9514L181.01 23.775C180.109 25.7028 178.283 28.5424 177.188 29.6626C174.948 32.0072 171.71 33.8568 168.058 34.8728C165.94 35.472 165.599 35.498 158.637 35.4199C150.676 35.3417 151.601 35.1854 148.363 37.0351C147.706 37.3998 146.902 37.7124 146.61 37.7124C146.294 37.7124 145.977 37.8166 145.904 37.9729C145.831 38.1032 145.49 38.2334 145.149 38.2334C143.835 38.2334 144.711 38.6763 146.829 39.0931C150.724 39.8225 154.376 39.8486 156.981 39.1452C157.492 39.015 157.419 39.1452 156.494 40.057C155.447 41.1251 152.745 42.6621 151.99 42.6621C150.724 42.6621 152.696 43.7823 155.642 44.7462C159.367 45.9446 160.487 46.1009 165.064 46.0488C168.326 46.0227 169.762 45.8404 172.489 45.1109C174.364 44.616 178.356 42.9226 179.33 42.1932C179.695 41.9327 180.158 41.6461 180.353 41.568C182.495 40.7604 191.454 31.7206 190.139 31.7206C190.018 31.7206 189.604 32.0332 189.214 32.45C187.778 33.9089 185.051 36.0972 183.688 36.9048C181.667 38.1032 180.304 38.4939 177.675 38.6763C175.459 38.8065 175.313 38.7805 174.68 38.2074L174.023 37.5821L174.607 36.2796C175.337 34.7165 175.581 34.4299 177.918 32.2416C178.916 31.3038 179.793 30.4702 179.866 30.392C180.206 29.9231 184.102 27.3961 185.83 26.5104C188.654 25.0515 191.211 24.1918 194.181 23.7229C199.342 22.8893 204.795 24.2179 211.393 27.865C212.196 28.3079 212.902 28.7508 212.975 28.8289C213.048 28.9071 213.267 29.0894 213.486 29.2457C214.192 29.7147 215.239 30.4962 217.041 31.903C218.015 32.6585 218.842 33.2837 218.915 33.2837C219.232 33.2837 218.648 32.2416 217.382 30.5483C210.419 21.1959 200.851 16.8193 189.725 17.9135C186.293 18.2261 182.592 18.9816 179.939 19.8934C176.092 21.222 174.364 21.5867 171.564 21.743C168.35 21.8993 166.695 21.6127 165.648 20.6488C164.236 19.3463 165.526 17.5227 168.521 16.5588C170.274 16.0117 173.341 15.5689 175.557 15.5689C176.92 15.5689 177.918 15.4647 177.918 15.3083C177.918 14.9176 174.534 13.0158 172.684 12.3906C171.296 11.8956 170.395 11.7914 167.815 11.7914C165.892 11.7914 164.114 11.9477 163.311 12.1562C161.388 12.6772 156.665 14.5008 153.695 15.8554C153.159 16.0899 152.063 16.4807 151.26 16.7412C150.457 16.9756 149.361 17.3143 148.826 17.4706C148.241 17.653 146.099 17.7832 143.591 17.7832C141.254 17.7832 139.258 17.8874 139.161 18.0177C139.087 18.1479 138.722 18.0177 138.381 17.7311C138.041 17.4445 137.846 17.1059 137.943 17.0017C138.041 16.9235 137.992 16.8714 137.87 16.9235C137.724 16.9756 136.702 16.3504 135.557 15.5689C131.297 12.599 126.793 11.4788 123.823 12.7032C123.141 12.9898 122.508 13.1721 122.46 13.12C122.411 13.0419 122.192 13.1721 121.973 13.3806C121.754 13.615 120.877 14.3445 120.025 15.0478C119.197 15.7252 117.883 17.0277 117.128 17.8874C116.057 19.1379 115.692 19.4244 115.448 19.19C115.254 19.0337 115.107 18.9816 115.107 19.1118C115.107 19.216 114.986 19.19 114.815 19.0076C114.645 18.8253 114.304 18.695 114.036 18.695C112.941 18.695 109.362 17.158 107.755 15.9857C107.317 15.6731 106.757 15.3344 106.514 15.2302C106.27 15.126 106.148 14.9436 106.221 14.7873C106.295 14.631 106.197 14.605 106.002 14.6831C105.783 14.7613 105.613 14.7352 105.613 14.605C105.613 14.4747 105.272 14.1621 104.882 13.9016C104.444 13.6411 104.201 13.3285 104.298 13.1461C104.396 12.9637 104.371 12.9116 104.274 13.0419C104.006 13.3024 102.667 11.9217 102.862 11.583C102.935 11.4267 102.886 11.4007 102.74 11.5049C102.594 11.583 102.229 11.2965 101.912 10.8796C101.596 10.4368 101.06 9.73339 100.695 9.29052C100.33 8.8737 99.8674 8.19637 99.6726 7.8056C99.4779 7.38878 99.137 6.91986 98.9423 6.7375C98.7232 6.52909 98.5527 6.21647 98.5527 6.00807C98.5527 5.82571 98.3336 5.40889 98.0658 5.09628C97.8224 4.78366 97.652 4.44499 97.725 4.31474C97.798 4.21053 97.7494 4.10633 97.6276 4.10633C97.4572 4.10633 96.5808 2.5172 96.4834 2.02223C96.4347 1.76172 95.0227 0.198644 94.8523 0.198644C94.7549 0.198644 94.5601 0.433106 94.4141 0.693618ZM46.8192 28.5945C46.8923 28.7247 47.1844 28.855 47.4522 28.855C47.9634 28.855 50.1302 30.2617 51.0066 31.1735C52.1265 32.3198 53.7576 35.3678 54.1471 37.0611C54.5123 38.6242 54.3906 41.9587 53.9524 42.8966C53.7089 43.3916 53.5141 43.9126 53.5141 44.0689C53.5141 44.3294 52.9786 45.0588 51.6396 46.5959C50.6414 47.7682 49.4972 48.8102 48.8886 49.1228C48.5477 49.3052 48.1095 49.5396 47.9148 49.696C47.1357 50.217 45.3585 50.9985 44.9203 50.9985C44.6525 50.9985 44.0195 51.1288 43.4839 51.3111C42.3154 51.6758 40.2704 51.3111 38.2984 50.3472C36.9351 49.6699 34.7684 47.3774 34.7684 46.5959C34.7684 46.3614 34.6466 46.0227 34.5006 45.8664C34.3058 45.658 34.2084 44.3294 34.2084 42.089C34.2084 36.6703 34.9631 34.1955 37.2516 31.8248C38.6149 30.4181 40.2704 29.35 42.0963 28.7508C43.3622 28.334 46.6001 28.2298 46.8192 28.5945Z" fill="white"/>
<path d="M88.2058 10.9309C87.1833 11.3217 87.0615 11.3738 86.4772 11.7385C84.9678 12.6763 83.921 13.6402 83.288 14.6041C82.4603 15.9588 81.5108 18.3294 81.5108 19.111C81.5108 19.4496 81.4134 19.7883 81.2674 19.8665C80.9022 20.1009 80.9509 24.0868 81.3404 24.2431C82.0464 24.5296 90.6646 24.217 91.4924 23.8784C93.513 23.0187 95.2172 21.4295 95.9719 19.6841C96.4831 18.4597 96.8726 15.3336 96.6048 14.7604C96.4588 14.4999 96.3614 14.1091 96.3614 13.8747C96.3614 13.2234 95.2659 11.6603 94.4381 11.1133C93.8051 10.7225 93.2209 10.6183 91.2976 10.6443C90.0073 10.6704 88.6196 10.8006 88.2058 10.9309Z" fill="white"/>
<path d="M115.643 31.1203C115.521 31.5371 115.205 32.6312 114.986 33.5951C114.742 34.6893 114.475 35.2885 114.304 35.1843C114.158 35.1061 114.134 35.1582 114.231 35.3145C114.304 35.4708 113.89 36.8776 113.257 38.4146C110.482 45.3442 108.51 50.5805 108.364 51.2839C108.169 52.352 108.826 53.3419 109.752 53.3419C110.482 53.3419 111.212 52.5604 111.212 51.7789C111.212 51.5705 111.651 50.32 112.21 49.0174C112.965 47.2199 113.33 46.6728 113.622 46.751C113.842 46.8031 115.375 46.5426 117.031 46.1779C118.686 45.8131 120.22 45.5266 120.463 45.5266C120.707 45.5266 121.096 46.0216 121.462 46.8812C122.508 49.3301 124.213 52.5604 124.943 53.5243C125.479 54.2016 126.355 54.3058 126.793 53.7327C127.11 53.3159 126.745 52.0915 125.211 48.5746C124.724 47.4544 124.407 46.4123 124.505 46.256C124.602 46.0997 124.578 46.0476 124.432 46.1258C124.286 46.23 124.067 45.9955 123.896 45.6308C123.555 44.7711 123.531 44.8232 124.334 44.5366C124.797 44.3543 125.065 44.0417 125.138 43.5988C125.235 43.0517 125.138 42.8954 124.529 42.661C124.14 42.5307 123.507 42.4004 123.166 42.4004C122.581 42.4004 122.435 42.1399 121.194 38.6751C119.514 33.9598 118.175 31.0421 117.566 30.7034C116.666 30.1824 115.911 30.3648 115.643 31.1203ZM119.587 42.3483C119.733 42.7912 119.611 42.8694 118.711 43.0257C116.617 43.3122 114.621 43.4946 114.621 43.3904C114.621 43.3383 115.059 42.1139 115.619 40.6811C116.154 39.2743 116.714 37.7633 116.86 37.3726C117.104 36.6431 117.153 36.6952 118.272 39.2482C118.93 40.6811 119.514 42.0618 119.587 42.3483Z" fill="white"/>
<path d="M136.653 31.5908C135.582 31.7732 133.951 32.1119 133.001 32.3463C132.076 32.5808 130.615 32.7632 129.788 32.7632C127.767 32.7632 127.67 32.9716 127.889 36.8532C128.059 39.6928 128.059 39.8491 127.548 40.2138C126.939 40.6827 126.866 41.7769 127.426 42.6105C127.718 43.0794 127.767 43.6265 127.645 45.3459C127.572 46.5182 127.451 48.0813 127.402 48.8368C127.353 49.5922 127.183 50.4519 127.037 50.7645C126.647 51.494 126.915 52.4579 127.621 52.9789C128.181 53.3436 128.351 53.3176 130.372 52.5881C133.147 51.5721 135.046 51.2595 138.43 51.2595C139.94 51.2595 141.4 51.1293 141.668 50.999C142.277 50.6343 142.277 49.8006 141.668 49.4359C140.816 48.967 136.483 48.6283 133.293 48.8107L130.202 48.9931L130.348 45.893C130.445 44.1996 130.542 42.7668 130.542 42.7408C130.664 42.5584 140.792 40.6306 140.962 40.7348C141.06 40.813 141.157 40.7609 141.157 40.6306C141.157 40.4743 141.449 40.292 141.79 40.2138C142.666 39.9793 143.591 39.276 143.591 38.8852C143.591 37.791 142.447 37.8431 131.687 39.4583L130.615 39.6146L130.737 37.7389C130.81 36.7229 130.908 35.8111 130.981 35.759C131.054 35.6809 132.198 35.3162 133.513 34.9254C135.655 34.3262 136.483 34.2481 141.035 34.1439C143.859 34.0918 146.294 33.9876 146.464 33.9355C146.61 33.8834 146.756 33.5707 146.756 33.2842C146.756 32.4245 145.076 31.7732 141.985 31.4606C138.917 31.148 139.161 31.148 136.653 31.5908Z" fill="white"/>
<path d="M150.286 45.5017C150.237 45.6319 150.797 45.8664 151.576 46.0227C152.331 46.2051 153.621 46.674 154.425 47.1169C155.228 47.5337 155.666 47.7942 155.399 47.716C154.352 47.3513 152.355 47.2992 151.99 47.6118C151.211 48.3152 151.698 49.0968 153.743 50.3993C156.835 52.3271 161.582 52.5876 163.846 50.9464C164.187 50.6859 164.552 50.4775 164.625 50.4775C164.796 50.4775 165.405 49.9564 166.768 48.6799C167.961 47.5597 167.644 47.169 166.208 47.9244C164.65 48.7581 161.655 48.6799 159.294 47.7421C155.131 46.1009 153.11 45.4496 151.82 45.3714C151.041 45.3193 150.359 45.3975 150.286 45.5017Z" fill="white"/>
<path d="M0.0520607 60.2457C-0.0209749 60.4541 -0.0209749 60.7407 0.0764059 60.897C0.173787 61.0793 31.8712 61.1575 103.811 61.1575H207.4L207.327 60.5583L207.254 59.9852L103.714 59.907C13.3445 59.8549 0.173787 59.907 0.0520607 60.2457Z" fill="white"/>
<path d="M35.0602 65.2472C34.1594 67.696 33.989 72.3592 34.6463 75.7459C35.0846 77.9863 35.2306 78.2207 36.0827 77.9863L36.6913 77.83L36.2288 76.7098C35.4254 74.7559 35.1333 71.6558 35.4984 69.0507C35.6688 67.8003 35.961 66.3414 36.1314 65.7943C36.3018 65.2733 36.3749 64.7783 36.3018 64.7002C35.9366 64.3094 35.2793 64.596 35.0602 65.2472Z" fill="white"/>
<path d="M90.7622 64.7787C90.7622 64.909 90.9813 65.925 91.2491 67.0452C91.8821 69.7285 91.8821 72.9328 91.2491 75.4858C90.6405 77.9607 90.6405 78.143 91.2978 78.0388C91.6873 77.9867 91.9308 77.5959 92.296 76.5278C92.9776 74.4959 93.0263 68.5301 92.369 66.1595C91.9795 64.7787 91.8334 64.5443 91.3465 64.5443C91.03 64.5443 90.7622 64.6485 90.7622 64.7787Z" fill="white"/>
<path d="M1.41531 71.1872C1.53703 76.9705 1.56138 77.179 2.02393 77.179C2.48649 77.179 2.51084 76.9966 2.51084 71.2132V65.2475L1.90221 65.2214L1.29358 65.1954L1.41531 71.1872Z" fill="white"/>
<path d="M11.4701 65.2483C11.2266 65.3525 11.1536 66.7332 11.1536 71.0577C11.1536 75.773 11.2266 76.789 11.5187 77.0495C11.8109 77.31 11.957 77.31 12.2491 77.0495C12.5412 76.789 12.6143 75.773 12.6143 71.0577C12.6143 65.8735 12.5656 65.3785 12.2004 65.2743C11.957 65.1962 11.6161 65.1962 11.4701 65.2483Z" fill="white"/>
<path d="M20.8427 65.3517C20.721 65.4559 20.648 65.7425 20.6966 66.003C20.7453 66.3938 21.0375 66.524 21.9139 66.5761L23.0825 66.6543L23.1312 71.9166C23.2042 76.9705 23.2285 77.179 23.6911 77.179C24.1537 77.179 24.178 76.9705 24.251 71.8906L24.2997 66.6282H25.4196C26.4665 66.6282 26.5151 66.6022 26.4421 65.9509L26.3691 65.2736L23.7398 65.2475C22.2791 65.2214 20.9888 65.2736 20.8427 65.3517Z" fill="white"/>
<path d="M44.5063 71.0833V77.0491H46.8922C48.2555 77.0491 49.5458 76.9188 49.911 76.7365C51.4691 75.9549 52.029 73.454 51.1039 71.5262C50.8604 70.9791 50.5926 70.6144 50.544 70.6926C50.4709 70.7447 50.2762 70.6405 50.1301 70.4321C49.911 70.1455 49.8866 69.911 50.0814 69.5203C50.4466 68.7908 50.4222 67.5143 49.984 66.6286C49.4484 65.5084 48.3529 65.0395 46.2835 65.0916L44.5063 65.1437V71.0833ZM48.6694 67.2017C49.2537 67.9572 49.2537 68.4782 48.6694 69.1816C48.3285 69.6245 47.939 69.7547 46.9652 69.7547H45.7236V68.1917V66.6286H46.9652C47.939 66.6286 48.3042 66.7588 48.6694 67.2017ZM49.205 71.6304C50.1788 72.1254 50.69 73.7406 50.1301 74.6524C49.7406 75.3297 48.572 75.7465 47.16 75.7465H45.7236V73.5322V71.3178H47.1356C47.9147 71.3178 48.8398 71.4741 49.205 71.6304Z" fill="white"/>
<path d="M59.9166 65.2484C59.6731 65.3266 59.6001 66.7855 59.6001 71.2142V77.0757L60.2818 76.9975L60.9391 76.9194L61.0121 74.1058L61.0852 71.3184H63.471C65.4429 71.3184 65.9055 71.3965 66.0272 71.7352C66.1003 71.9696 66.1733 73.2462 66.1733 74.6008C66.1733 77.0496 66.1733 77.0496 66.7819 77.0496H67.3906V71.2142C67.3906 67.5409 67.2932 65.3005 67.1471 65.1963C67.001 65.1182 66.7089 65.0921 66.4654 65.1703C66.1003 65.3005 66.0516 65.6131 66.1246 67.3325C66.2463 69.8855 66.1003 70.0158 63.2032 70.0158H61.0608V67.9578C61.0608 65.1963 60.8904 64.8056 59.9166 65.2484Z" fill="white"/>
<path d="M76.0334 65.2223C75.79 65.3265 75.79 74.236 76.0334 75.4083C76.2525 76.3983 77.4941 77.1277 79.0522 77.1538C81.3407 77.2059 82.3875 76.242 82.4849 74.0537C82.5092 73.4805 82.5336 71.2141 82.5092 69.0258C82.4849 65.0399 82.4849 65.0399 81.9493 65.1181C81.3894 65.1963 81.3894 65.2484 81.3163 70.0939L81.2676 74.9915L80.4642 75.4865C79.6122 76.0596 78.6627 76.0075 77.6889 75.3302C77.1533 74.9655 77.129 74.8092 77.0803 70.0939C77.0072 65.9778 76.9585 65.1963 76.642 65.1442C76.4473 65.1181 76.1795 65.1442 76.0334 65.2223Z" fill="white"/>
<path d="M110.263 65.3008C109.995 65.4831 110.214 66.4731 111.407 70.4329C112.235 73.1422 112.965 75.6692 113.062 76.0599C113.208 76.8154 113.768 77.4667 113.963 77.128C114.207 76.6852 117.298 66.1865 117.298 65.7958C117.298 65.5613 117.201 65.3008 117.104 65.2226C116.811 65.0403 115.813 65.3529 115.959 65.5874C116.032 65.6916 115.57 67.463 114.961 69.5211C114.353 71.5791 113.841 73.3767 113.793 73.5069C113.768 73.6372 113.233 71.9959 112.6 69.8598C111.139 64.9621 111.042 64.7798 110.263 65.3008Z" fill="white"/>
<path d="M206.183 68.1392C205.891 68.7384 206.28 69.4939 206.889 69.4939C207.498 69.4939 207.692 69.1031 207.522 68.2955C207.327 67.5401 206.524 67.4359 206.183 68.1392Z" fill="white"/>
<path d="M126.915 70.1199C125.552 70.7712 124.992 71.683 124.894 73.4805C124.797 74.9915 124.846 75.1478 125.576 75.9294C126.55 76.9714 127.767 77.4143 128.936 77.1538C130.25 76.8672 130.299 76.8672 130.591 77.1017C130.737 77.2319 131.054 77.258 131.273 77.1538C131.614 77.0235 131.662 76.4764 131.662 73.5326C131.662 70.7191 131.589 70.0418 131.297 69.9115C131.102 69.8334 130.786 69.9376 130.591 70.146C130.299 70.4847 130.129 70.4847 129.374 70.146C128.327 69.6771 127.865 69.6771 126.915 70.1199ZM129.106 71.4225C130.543 72.0738 130.908 73.8453 129.861 75.1478C129.398 75.7209 129.082 75.8773 128.254 75.8773C125.868 75.8773 125.187 72.4645 127.353 71.4486C128.327 70.9796 128.132 71.0057 129.106 71.4225Z" fill="white"/>
<path d="M141.546 69.9376C141.449 70.0418 141.011 70.0939 140.548 70.0679L139.696 69.9897V73.3503C139.696 75.9815 139.769 76.7891 140.061 77.0496C140.694 77.5967 140.913 77.0496 140.913 74.9655C140.913 72.0738 141.449 70.7712 142.374 71.3704C142.934 71.7612 143.591 71.4486 143.591 70.8233C143.591 70.1981 141.984 69.4947 141.546 69.9376Z" fill="white"/>
<path d="M152.964 70.1457C152.574 70.3802 152.063 70.771 151.844 71.0575C151.625 71.318 151.381 71.5004 151.333 71.4483C151.26 71.3702 151.211 71.4744 151.187 71.6567C151.162 71.813 151.089 72.4643 150.992 73.0895C150.895 73.9232 150.968 74.4442 151.333 75.1997C151.625 75.7728 151.771 76.2938 151.674 76.398C151.576 76.5022 151.625 76.5543 151.747 76.5022C151.893 76.4762 152.404 76.6325 152.891 76.867C154.011 77.414 154.936 77.414 155.837 76.9451C156.202 76.7367 156.494 76.6585 156.494 76.7888C156.494 77.1014 157.273 77.3619 157.492 77.1275C157.589 77.0233 157.711 75.3299 157.76 73.4021L157.833 69.8592L157.176 69.9634C156.786 70.0155 156.494 70.1718 156.494 70.276C156.494 70.3802 156.08 70.3281 155.593 70.1197C154.376 69.6768 153.84 69.6768 152.964 70.1457ZM156.007 71.9693C157.127 73.2458 156.397 75.5123 154.765 75.877C153.207 76.2417 151.722 74.2618 152.331 72.6727C152.647 71.8912 153.451 71.2138 153.816 71.4483C153.962 71.5525 154.059 71.5004 154.059 71.3702C154.059 70.9273 155.496 71.3702 156.007 71.9693Z" fill="white"/>
<path d="M166.427 69.9382C166.037 70.0424 165.989 70.4332 165.989 73.5333C165.989 75.4611 166.086 77.0763 166.208 77.1544C166.33 77.2586 166.597 77.2326 166.817 77.1544C167.133 77.0242 167.206 76.5552 167.206 74.5753C167.206 72.6997 167.303 72.0484 167.596 71.7358C168.082 71.1887 168.886 71.1626 168.715 71.6837C168.667 71.8139 168.813 71.7618 169.032 71.5795C169.714 70.9803 169.981 71.6837 170.079 74.393C170.176 77.0763 170.347 77.5973 170.98 77.0502C171.515 76.5813 171.491 72.387 170.955 71.2408C170.444 70.1727 170.566 70.2769 169.421 69.9903C168.837 69.8601 168.204 69.8601 167.863 69.9903C167.523 70.1206 167.182 70.1466 167.06 70.0424C166.938 69.9382 166.646 69.8861 166.427 69.9382Z" fill="white"/>
<path d="M181.156 70.2753C178.015 71.7863 178.77 76.736 182.227 77.231C182.836 77.3092 183.444 77.231 183.907 76.9705C184.516 76.6318 184.662 76.6318 184.929 76.9705C185.66 77.7781 185.83 77.1789 185.903 73.5838L185.976 70.0148H185.343C185.002 70.0148 184.735 70.119 184.735 70.2493C184.735 70.4056 184.345 70.3274 183.883 70.119C182.787 69.6501 182.397 69.6501 181.156 70.2753ZM184.15 71.8645C184.467 72.1771 184.662 72.7241 184.686 73.4015C184.735 74.2872 184.637 74.5998 184.004 75.2772C183.371 75.9284 183.128 76.0327 182.471 75.9024C180.815 75.5377 180.012 73.8443 180.839 72.4115C181.643 71.0048 183.03 70.7964 184.15 71.8645Z" fill="white"/>
<path d="M194.959 70.1197C194.789 70.3803 194.521 70.5105 194.375 70.4584C194.205 70.3803 194.083 70.771 194.034 71.3963C193.961 72.6467 194.4 73.2719 195.885 73.9493C197.029 74.4703 197.37 75.0174 196.907 75.6165C196.493 76.1636 195.86 76.1115 195.13 75.4863C194.375 74.835 193.742 74.809 193.742 75.4081C193.767 76.0855 194.278 76.7367 195.057 77.0494C196.225 77.5183 196.907 77.362 197.783 76.4241C198.514 75.6426 198.563 75.4602 198.368 74.7569C198.051 73.5325 197.954 73.4282 196.518 72.7509C195.13 72.0996 194.911 71.761 195.641 71.3441C195.958 71.1618 196.298 71.1878 196.785 71.4744C197.516 71.8652 198.124 71.6047 198.124 70.9013C198.124 70.0676 195.519 69.4424 194.959 70.1197Z" fill="white"/>
<path d="M206.158 73.5065C206.158 76.5284 206.207 77.0234 206.572 77.1536C206.791 77.2578 207.059 77.2318 207.156 77.1276C207.302 76.9713 207.473 72.23 207.4 70.3282C207.375 70.1719 207.108 70.0156 206.767 70.0156H206.158V73.5065Z" fill="white"/>
<path d="M101.303 76.2937C101.036 77.0492 100.817 77.2836 100.549 77.1794C100.281 77.0752 100.257 77.1273 100.451 77.3878C100.67 77.6483 100.67 77.8046 100.451 78.0391C100.232 78.2736 100.305 78.4038 100.744 78.5601C101.255 78.7685 101.377 78.6643 101.912 77.5181C102.229 76.8407 102.594 76.2676 102.715 76.2676C103.105 76.2676 102.667 75.5382 102.18 75.4079C101.79 75.3037 101.62 75.4861 101.303 76.2937Z" fill="white"/>
</svg>
